<?xml version="1.0" standalone="no"?>
<!DOCTYPE svg PUBLIC "-//W3C//DTD SVG 20010904//EN"
 "http://www.w3.org/TR/2001/REC-SVG-20010904/DTD/svg10.dtd">
<svg version="1.0" xmlns="http://www.w3.org/2000/svg"
 width="240.000000pt" height="240.000000pt" viewBox="0 0 240.000000 240.000000"
 preserveAspectRatio="xMidYMid meet">
<metadata>
Created by potrace 1.14, written by Peter Selinger 2001-2017
</metadata>
<g transform="translate(0.000000,240.000000) scale(0.100000,-0.100000)"
fill="#000000" stroke="none">
<path d="M1058 2394 c-2 -1 -26 -6 -53 -10 -76 -10 -211 -51 -300 -91 -314
-142 -547 -407 -656 -748 -7 -22 -13 -44 -14 -50 -1 -12 -16 -82 -23 -110 -2
-11 -6 -83 -7 -160 -3 -125 4 -195 29 -313 22 -102 106 -293 162 -369 13 -17
24 -36 24 -41 0 -6 3 -12 8 -14 4 -1 18 -16 30 -33 47 -62 167 -175 241 -228
111 -79 219 -133 353 -176 106 -34 233 -50 373 -47 122 3 161 7 227 22 15 3
30 5 33 5 3 0 51 16 107 36 104 37 178 73 256 124 24 16 47 29 52 29 4 0 10 3
12 8 2 4 23 23 48 43 46 37 137 128 165 164 8 11 29 38 46 60 93 120 185 335
214 500 14 83 14 318 -2 400 -18 98 -18 87 2 160 32 113 13 204 -73 352 -22
37 -49 84 -60 103 -11 19 -36 64 -57 100 -21 36 -51 90 -68 120 -17 30 -41 72
-54 92 -13 21 -23 40 -23 43 0 3 -5 12 -12 19 -10 10 -24 -7 -71 -88 -32 -56
-61 -104 -65 -108 -4 -4 -24 4 -45 17 -117 80 -310 155 -462 179 -77 12 -328
20 -337 10z"/>
</g>
</svg>
